<svg width="126" height="24" viewBox="0 0 126 24" fill="none" xmlns="http://www.w3.org/2000/svg">
<path fill-rule="evenodd" clip-rule="evenodd" d="M74 12C74 13.933 72.433 15.5 70.5 15.5C68.567 15.5 67 13.933 67 12C67 10.067 68.567 8.5 70.5 8.5C72.433 8.5 74 10.067 74 12ZM74.25 16.684C73.2228 17.5075 71.9189 18 70.5 18C67.1863 18 64.5 15.3137 64.5 12C64.5 8.68629 67.1863 6 70.5 6C71.9189 6 73.2228 6.49254 74.25 7.31597V6.25H77V18H74.25V16.684Z" fill="#001530"/>
<path fill-rule="evenodd" clip-rule="evenodd" d="M37.5 6.25V18H40.2923V11.9698C40.2923 11.7831 40.3002 11.6037 40.3159 11.4314C40.3969 10.5425 40.6869 9.8449 41.1858 9.33868C41.3382 9.18038 41.5046 9.04232 41.6851 8.9245C41.9973 8.72082 42.3516 8.57762 42.7481 8.49489C43.0192 8.43832 43.3101 8.41004 43.6207 8.41004C43.8499 8.41004 44.0659 8.42693 44.2685 8.46071C44.4156 8.48522 44.5556 8.51862 44.6886 8.5609C45.0991 8.69135 45.443 8.90639 45.7205 9.20602C46.212 9.72193 46.4577 10.4958 46.4577 11.5276V18H49.25V11.1738C49.25 9.46397 48.7958 8.17419 47.8874 7.30452C47.1734 6.62103 46.2755 6.20612 45.1936 6.05979C44.8989 6.01993 44.5906 6 44.2685 6C44.0469 6 43.831 6.00891 43.6207 6.02673C43.3105 6.05302 43.0127 6.0987 42.7272 6.16378C42.4391 6.22946 42.1636 6.3149 41.9007 6.4201C41.2007 6.70016 40.6199 7.11289 40.1583 7.65828V6.25H37.5Z" fill="#001530"/>
<path fill-rule="evenodd" clip-rule="evenodd" d="M51.25 6.25V18H54.0423V11.9698C54.0423 11.7831 54.0502 11.6037 54.0659 11.4314C54.1469 10.5425 54.4369 9.8449 54.9358 9.33868C55.0882 9.18038 55.2546 9.04232 55.4351 8.9245C55.7473 8.72082 56.1016 8.57762 56.4981 8.49489C56.7692 8.43832 57.0601 8.41004 57.3707 8.41004C57.5999 8.41004 57.8159 8.42693 58.0185 8.46071C58.1656 8.48522 58.3056 8.51862 58.4386 8.5609C58.8491 8.69135 59.193 8.90639 59.4705 9.20602C59.962 9.72193 60.2077 10.4958 60.2077 11.5276V18H63V11.1738C63 9.46397 62.5458 8.17419 61.6374 7.30452C60.9234 6.62103 60.0255 6.20612 58.9436 6.05979C58.6489 6.01993 58.3406 6 58.0185 6C57.7969 6 57.581 6.00891 57.3707 6.02673C57.0605 6.05302 56.7627 6.0987 56.4772 6.16378C56.1891 6.22946 55.9136 6.3149 55.6507 6.4201C54.9507 6.70016 54.3699 7.11289 53.9083 7.65828V6.25H51.25Z" fill="#001530"/>
<path fill-rule="evenodd" clip-rule="evenodd" d="M30 15.5C31.933 15.5 33.5 13.933 33.5 12C33.5 10.067 31.933 8.5 30 8.5C28.067 8.5 26.5 10.067 26.5 12C26.5 13.933 28.067 15.5 30 15.5ZM30 18C33.3137 18 36 15.3137 36 12C36 8.68629 33.3137 6 30 6C26.6863 6 24 8.68629 24 12C24 15.3137 26.6863 18 30 18Z" fill="#001530"/>
<path fill-rule="evenodd" clip-rule="evenodd" d="M15.5 12C15.5 15.5899 12.5899 18.5 9 18.5C5.41015 18.5 2.5 15.5899 2.5 12C2.5 8.41015 5.41015 5.5 9 5.5C12.5899 5.5 15.5 8.41015 15.5 12ZM18 12C18 16.9706 13.9706 21 9 21C4.02944 21 0 16.9706 0 12C0 7.02944 4.02944 3 9 3C13.9706 3 18 7.02944 18 12ZM11.4898 13.8516L8.99994 9L6.51012 13.8516H11.4898Z" fill="#001530"/>
<path fill-rule="evenodd" clip-rule="evenodd" d="M106 15.5C107.933 15.5 109.5 13.933 109.5 12C109.5 10.067 107.933 8.5 106 8.5C104.067 8.5 102.5 10.067 102.5 12C102.5 13.933 104.067 15.5 106 15.5ZM106 18C109.314 18 112 15.3137 112 12C112 8.68629 109.314 6 106 6C102.686 6 100 8.68629 100 12C100 15.3137 102.686 18 106 18Z" fill="#BDBFC9"/>
<path fill-rule="evenodd" clip-rule="evenodd" d="M98 0H95.25V7.31597C94.2228 6.49254 92.9189 6 91.5 6C88.1863 6 85.5 8.68629 85.5 12C85.5 15.3137 88.1863 18 91.5 18C92.9189 18 94.2228 17.5075 95.25 16.684V18H98V0ZM95 12C95 13.933 93.433 15.5 91.5 15.5C89.567 15.5 88 13.933 88 12C88 10.067 89.567 8.5 91.5 8.5C93.433 8.5 95 10.067 95 12Z" fill="#BDBFC9"/>
<path d="M123.743 7.75736C122.904 6.91825 121.834 6.3468 120.671 6.11529C119.507 5.88378 118.3 6.0026 117.204 6.45672C116.108 6.91085 115.17 7.67988 114.511 8.66658C113.852 9.65327 113.5 10.8133 113.5 12C113.5 13.1867 113.852 14.3467 114.511 15.3334C115.17 16.3201 116.108 17.0892 117.204 17.5433C118.3 17.9974 119.507 18.1162 120.671 17.8847C121.834 17.6532 122.904 17.0818 123.743 16.2426L121.876 14.3759C121.406 14.8458 120.807 15.1658 120.156 15.2954C119.504 15.4251 118.828 15.3585 118.214 15.1042C117.6 14.8499 117.075 14.4193 116.706 13.8667C116.337 13.3142 116.14 12.6645 116.14 12C116.14 11.3355 116.337 10.6858 116.706 10.1333C117.075 9.58073 117.6 9.15007 118.214 8.89576C118.828 8.64145 119.504 8.57491 120.156 8.70456C120.807 8.83421 121.406 9.15422 121.876 9.62412L123.743 7.75736Z" fill="#BDBFC9"/>
</svg>
