<svg width="1201" height="458" xmlns="http://www.w3.org/2000/svg" xmlns:xlink="http://www.w3.org/1999/xlink"><defs><path d="M.98 6.817C.7 7.27.386 7.8.12 8.22A.857.857 0 0 0 .408 9.39l5.586 3.436a.861.861 0 0 0 1.19-.293c.223-.371.51-.857.824-1.379 2.213-3.65 4.439-3.203 8.45-1.29l5.539 2.636c.32.153.7.093.957-.152a.857.857 0 0 0 .198-.278l2.66-6.015a.858.858 0 0 0-.43-1.125 651.382 651.382 0 0 1-5.585-2.657C16.835.837 14.049 0 11.46 0 7.468.002 3.948 1.987.98 6.817" id="a"/><linearGradient x1="84.786%" y1="69.726%" x2="39.285%" y2="44.823%" id="b"><stop stop-color="#1550A1" offset="0%"/><stop stop-color="#1550A1" offset="18%"/><stop stop-color="#287EB8" offset="100%"/></linearGradient><path d="M19.234.023a.83.83 0 0 0-.317.146.877.877 0 0 0-.233.262c-.224.372-.512.858-.826 1.378-2.212 3.651-4.438 3.206-8.45 1.29L3.888.479a.866.866 0 0 0-1.155.429L.073 6.922a.858.858 0 0 0 .43 1.126 637.42 637.42 0 0 1 5.585 2.654c7.544 3.65 13.94 3.409 18.834-4.545.279-.455.592-.984.859-1.403a.86.86 0 0 0-.288-1.17L19.908.148a.843.843 0 0 0-.674-.124" id="d"/><linearGradient x1="17334.155%" y1="19881.066%" x2="18790.423%" y2="21547.798%" id="e"><stop stop-color="#1550A1" offset="0%"/><stop stop-color="#1550A1" offset="18%"/><stop stop-color="#287EB8" offset="100%"/></linearGradient></defs><g transform="translate(.5)" fill="none" fill-rule="evenodd"><path d="M135.024 301.316l4.266.411a324.016 324.016 0 0 0 138.434-16.75l63.102-22.13a324.031 324.031 0 0 1 83.16-17.363l144.078-10.73-32.29 7.673c-22.744 5.405-45.096 16.872-65.301 33.505l-83.005 68.327c-55.612 45.779-118.94 71.668-180.816 73.918l-38.42 1.396m399.833-184.258l-64.498-14.19-111.7-34.684c-28.068-8.717-56.284-14.325-84.265-16.75l-200.928-17.414M193.343 38.88l61.608 9.269c57.928 8.715 115.559 37.436 165.673 82.564l66.723 60.087c19.203 17.293 40.693 29.838 62.862 36.693l17.855 5.52" stroke="#E4E6E7" stroke-width="15"/><path d="M187.671 0c22.814 0 41.31 18.495 41.31 41.31 0 22.814-18.496 41.308-41.31 41.308-22.814 0-41.31-18.494-41.31-41.308 0-22.815 18.496-41.31 41.31-41.31m-82.617 115.02c22.815 0 41.31 18.495 41.31 41.31 0 22.814-18.495 41.309-41.31 41.309-22.814 0-41.31-18.495-41.31-41.309 0-22.815 18.496-41.31 41.31-41.31" fill="#FFF" fill-rule="nonzero"/><path d="M91.721 162.84a4.549 4.549 0 0 1-4.538 4.537 4.549 4.549 0 0 1-4.539-4.538 4.55 4.55 0 0 1 4.54-4.539h4.537v4.54zm2.286 0a4.55 4.55 0 0 1 4.539-4.54 4.549 4.549 0 0 1 4.537 4.54v11.362a4.549 4.549 0 0 1-4.537 4.537 4.549 4.549 0 0 1-4.54-4.537v-11.363z" fill="#DF1D5B" fill-rule="nonzero"/><path d="M98.546 144.616a4.549 4.549 0 0 1-4.54-4.538 4.549 4.549 0 0 1 4.54-4.537 4.548 4.548 0 0 1 4.537 4.537v4.538h-4.537zm0 2.286a4.549 4.549 0 0 1 4.537 4.539 4.549 4.549 0 0 1-4.537 4.537H87.183a4.549 4.549 0 0 1-4.539-4.537 4.55 4.55 0 0 1 4.54-4.54h11.362z" fill="#2DAECD" fill-rule="nonzero"/><path d="M116.767 151.442a4.549 4.549 0 0 1 4.537-4.54 4.55 4.55 0 0 1 4.54 4.54 4.549 4.549 0 0 1-4.54 4.538h-4.537v-4.538zm-2.286-.001a4.549 4.549 0 0 1-4.538 4.537 4.549 4.549 0 0 1-4.539-4.537v-11.363a4.549 4.549 0 0 1 4.54-4.537 4.548 4.548 0 0 1 4.537 4.537v11.363z" fill="#2EA677" fill-rule="nonzero"/><path d="M109.943 169.662a4.549 4.549 0 0 1 4.538 4.537 4.549 4.549 0 0 1-4.538 4.54 4.55 4.55 0 0 1-4.539-4.54v-4.537h4.54zm0-2.285a4.549 4.549 0 0 1-4.539-4.538 4.55 4.55 0 0 1 4.54-4.539h11.362a4.549 4.549 0 0 1 4.537 4.54 4.549 4.549 0 0 1-4.537 4.537h-11.363z" fill="#EBB22D" fill-rule="nonzero"/><path d="M187.671 1.621c22.814 0 41.31 18.495 41.31 41.31 0 22.814-18.496 41.309-41.31 41.309-22.814 0-41.31-18.495-41.31-41.31 0-22.814 18.496-41.309 41.31-41.309" fill="#FFF" fill-rule="nonzero"/><circle stroke="#FFF" cx="187.671" cy="42.93" r="41.875"/><path d="M188.19 33.523l-12.328 7.139 12.328 7.14-12.328 7.14-12.329-7.18 12.33-7.138-12.33-7.1 12.33-7.14 12.327 7.14zm-12.392 23.714l12.328-7.139 12.329 7.14-12.33 7.138-12.327-7.139zm12.392-9.474l12.328-7.138-12.328-7.1 12.265-7.14 12.327 7.14-12.327 7.138 12.327 7.14-12.327 7.14-12.265-7.18z" fill="#1E5BA6" fill-rule="nonzero"/><path d="M320.512 35.64c14.762 0 26.73 11.968 26.73 26.73s-11.968 26.73-26.73 26.73c-14.764 0-26.731-11.967-26.731-26.73 0-14.762 11.967-26.73 26.731-26.73" fill="#FFF" fill-rule="nonzero"/><circle stroke="#FFF" cx="320.512" cy="62.371" r="27.295"/><path fill="#F05324" fill-rule="nonzero" d="M309.443 51.3h11.38v11.38h-11.38z"/><path fill="#81BA1C" fill-rule="nonzero" d="M321.82 51.3h11.382v11.38H321.82z"/><path fill="#189FC7" fill-rule="nonzero" d="M309.443 63.679h11.38V75.06h-11.38z"/><path fill="#F7BA0F" fill-rule="nonzero" d="M321.82 63.679h11.382V75.06H321.82z"/><path d="M127.732 277.015c12.974 0 23.49 10.517 23.49 23.489 0 12.972-10.516 23.49-23.49 23.49-12.973 0-23.489-10.517-23.489-23.489 0-12.972 10.516-23.49 23.49-23.49" fill="#FFF" fill-rule="nonzero"/><circle stroke="#FFF" cx="127.732" cy="300.504" r="24.054"/><path d="M134.096 300.123a.803.803 0 0 1-.798.798h-11.899a.803.803 0 0 1-.798-.798.803.803 0 0 1 .798-.798h11.913c.437 0 .784.348.784.798m-3.178 4.37h-7.139a.792.792 0 1 1-.045-1.583h7.199c.436 0 .798.361.798.798a.796.796 0 0 1-.813.784m-7.139-8.736h7.154c.44.002.795.358.798.798a.804.804 0 0 1-.798.798h-7.154a.803.803 0 0 1-.798-.798.803.803 0 0 1 .798-.798m9.548-2.002a8.633 8.633 0 0 0-5.979-2.365c-.18 0-.376 0-.557.015a8.73 8.73 0 0 0-8.164 8.163 8.656 8.656 0 0 0 2.35 6.536 8.688 8.688 0 0 0 6.371 2.756h8.735v-8.735a8.572 8.572 0 0 0-2.756-6.37" fill="#EF7557" fill-rule="nonzero"/><path d="M136.083 308.858h-8.735a8.658 8.658 0 0 1-6.371-2.756 8.66 8.66 0 0 1-2.35-6.535 8.733 8.733 0 0 1 8.164-8.165c.195-.014.376-.014.572-.014 2.229 0 4.368.843 5.979 2.364a8.634 8.634 0 0 1 2.756 6.37v8.736h-.015zm-1.672-16.266a10.16 10.16 0 0 0-7.725-2.771c-5.181.316-9.324 4.473-9.64 9.64-.19 2.85.82 5.651 2.787 7.725a10.312 10.312 0 0 0 7.515 3.254h9.533a.803.803 0 0 0 .798-.798v-9.534a10.414 10.414 0 0 0-3.268-7.516" fill="#C34027" fill-rule="nonzero"/><path d="M130.918 302.896h-7.139a.803.803 0 0 0-.798.798c0 .436.362.798.798.798h7.154a.803.803 0 0 0 .798-.798.815.815 0 0 0-.813-.798m-7.139-5.557h7.154c.437 0 .798-.361.798-.799 0-.437-.36-.799-.798-.799h-7.154a.804.804 0 0 0-.798.8c0 .437.362.798.798.798m-2.38 1.986a.794.794 0 0 0-.768.814c.013.419.35.756.768.768h11.913a.803.803 0 0 0 .798-.798.803.803 0 0 0-.798-.798l-11.913.014z" fill="#FEFEFE" fill-rule="nonzero"/><path d="M348.05 155.517c14.763 0 26.73 11.967 26.73 26.73 0 14.762-11.967 26.73-26.73 26.73-14.762 0-26.73-11.967-26.73-26.73s11.968-26.73 26.73-26.73" fill="#FFF" fill-rule="nonzero"/><circle stroke="#FFF" cx="348.051" cy="182.247" r="27.295"/><path d="M352.864 185.122l7.328-7.008c-1.523-5.934-7.568-9.512-13.503-7.989a11.094 11.094 0 0 0-6.51 4.646c.113-.002 12.685 10.351 12.685 10.351" fill="#1163A9" fill-rule="nonzero"/><path d="M344.954 176.09a8.842 8.842 0 0 0-4.662-1.32l-.113.001a8.87 8.87 0 0 0-7.167 13.945l10.978-1.376 8.416-6.786-7.452-4.463z" fill="#1C75B3" fill-rule="nonzero"/><path d="M360.192 178.114a7.19 7.19 0 0 0-3.345.572l-4.44 1.868 4.895 6.047 8.751 2.127a7.212 7.212 0 0 0-5.861-10.614" fill="#1D8DBE" fill-rule="nonzero"/><path d="M333.012 188.716a8.863 8.863 0 0 0 7.279 3.802h19.412a7.21 7.21 0 0 0 6.348-3.789l-13.647-8.174-19.392 8.16z" fill="#28A2C9" fill-rule="nonzero"/><path d="M224.122 139.317c17.895 0 32.4 14.507 32.4 32.4s-14.505 32.4-32.4 32.4c-17.894 0-32.4-14.507-32.4-32.4s14.506-32.4 32.4-32.4" fill="#FFF" fill-rule="nonzero"/><circle stroke="#FFF" cx="224.122" cy="171.717" r="32.965"/><path d="M223.42 153.147c-10.155 0-18.39 8.233-18.39 18.389 0 8.126 5.269 15.02 12.576 17.452.918.169 1.257-.4 1.257-.885 0-.439-.018-1.887-.025-3.423-5.116 1.112-6.196-2.17-6.196-2.17-.836-2.126-2.041-2.691-2.041-2.691-1.669-1.142.125-1.118.125-1.118 1.846.13 2.82 1.895 2.82 1.895 1.639 2.811 4.301 1.998 5.35 1.53.165-1.19.642-2 1.168-2.46-4.085-.465-8.378-2.042-8.378-9.089 0-2.007.718-3.648 1.895-4.936-.191-.463-.821-2.334.177-4.867 0 0 1.544-.495 5.059 1.885 1.5-.408 3.048-.616 4.603-.619 1.564.008 3.137.211 4.607.62 3.51-2.38 5.053-1.886 5.053-1.886 1 2.533.37 4.404.18 4.867 1.179 1.288 1.892 2.929 1.892 4.936 0 7.064-4.301 8.62-8.397 9.074.66.57 1.248 1.69 1.248 3.406 0 2.46-.021 4.44-.021 5.046 0 .49.33 1.063 1.262.883 7.303-2.435 12.567-9.325 12.567-17.449 0-10.158-8.235-18.39-18.39-18.39" fill="#000" fill-rule="nonzero"/><path d="M211.917 179.344c-.041.092-.185.119-.316.057-.133-.06-.208-.186-.165-.277.04-.094.184-.12.318-.057.133.06.209.184.163.277m.905.806c-.088.082-.26.043-.376-.085-.12-.128-.143-.3-.054-.383.09-.08.257-.043.377.086.12.13.145.3.052.382h.001zm.21.875c.112.164.298.238.41.158v.002c.115-.08.115-.277.003-.444-.115-.162-.297-.232-.412-.154-.115.078-.115.275-.002.438m1.46 1.354c-.101.112-.315.082-.472-.07-.161-.148-.206-.358-.105-.469.102-.112.318-.08.476.07.16.148.21.359.102.47m.896.552c.21.061.415-.004.46-.148.043-.147-.094-.314-.3-.376-.21-.066-.419.002-.462.147-.041.146.094.314.302.377m2.003.023c.006.151-.171.278-.39.28-.22.005-.398-.117-.4-.267 0-.152.173-.278.392-.281.22-.005.398.118.398.268m1.174.283c.217-.041.368-.193.342-.34-.027-.151-.221-.24-.44-.203-.212.04-.367.192-.34.344.026.147.224.237.438.199" fill="#000" fill-rule="nonzero"/><path d="M348.86 336.953c16.105 0 29.16 13.056 29.16 29.16s-13.055 29.159-29.16 29.159-29.16-13.055-29.16-29.16c0-16.103 13.055-29.16 29.16-29.16" fill="#FFF" fill-rule="nonzero"/><circle stroke="#FFF" cx="348.86" cy="366.112" r="29.725"/><path d="M342.052 364.683c0 .437.047.79.13 1.05.094.26.212.543.377.85.052.08.08.174.082.27 0 .118-.07.237-.224.355l-.742.495a.572.572 0 0 1-.307.106c-.118 0-.236-.059-.354-.165a3.53 3.53 0 0 1-.425-.554 9.508 9.508 0 0 1-.366-.696c-.919 1.085-2.075 1.628-3.467 1.628-.99 0-1.78-.283-2.36-.85-.577-.566-.872-1.321-.872-2.264 0-1.004.354-1.816 1.074-2.43.719-.613 1.673-.92 2.89-.92.4 0 .813.036 1.25.096.436.058.884.153 1.356.258v-.86c0-.896-.189-1.523-.555-1.888-.377-.365-1.014-.541-1.922-.541-.412 0-.837.046-1.274.152-.433.104-.859.238-1.274.402-.188.082-.33.13-.412.153a.712.712 0 0 1-.19.035c-.164 0-.247-.117-.247-.366v-.577c0-.19.024-.33.083-.413.059-.084.165-.165.33-.248a6.808 6.808 0 0 1 1.487-.532c.6-.154 1.219-.228 1.839-.223 1.404 0 2.43.319 3.09.955.65.638.98 1.605.98 2.902v3.821h.023zm-4.788 1.793c.388 0 .79-.07 1.214-.212.425-.142.802-.4 1.121-.756a1.87 1.87 0 0 0 .4-.755c.082-.335.122-.679.119-1.024v-.495a9.686 9.686 0 0 0-1.085-.2 8.848 8.848 0 0 0-1.11-.072c-.79 0-1.367.154-1.757.472-.389.319-.578.769-.578 1.357 0 .555.141.967.437 1.25.283.294.696.435 1.239.435m9.47 1.274c-.212 0-.353-.035-.448-.117-.094-.07-.176-.237-.248-.46l-2.772-9.117c-.07-.236-.106-.39-.106-.472 0-.189.095-.294.284-.294h1.155c.224 0 .378.035.46.116.095.072.165.237.237.462l1.981 7.808 1.84-7.808c.058-.237.13-.39.223-.462.095-.07.26-.116.473-.116h.943c.225 0 .377.035.472.116.094.072.177.237.224.462l1.864 7.902 2.04-7.902c.07-.237.153-.39.236-.462.095-.07.248-.116.46-.116h1.097c.188 0 .295.094.295.294 0 .059-.012.119-.024.189a1.577 1.577 0 0 1-.083.294l-2.842 9.118c-.07.236-.153.389-.247.46-.095.07-.248.118-.449.118h-1.014c-.224 0-.378-.034-.471-.118-.095-.082-.178-.236-.225-.471l-1.828-7.608-1.815 7.595c-.06.236-.13.391-.225.473-.094.082-.259.117-.471.117h-1.015zm15.157.319a7.82 7.82 0 0 1-1.817-.213c-.59-.14-1.05-.295-1.356-.47-.19-.107-.32-.226-.365-.332a.82.82 0 0 1-.072-.33v-.602c0-.247.094-.364.272-.364a.73.73 0 0 1 .212.033c.07.025.177.072.295.119.4.177.837.319 1.297.414.472.093.933.14 1.404.14.743 0 1.32-.13 1.722-.391.401-.258.614-.636.614-1.118 0-.33-.107-.602-.32-.826-.212-.224-.613-.425-1.19-.614l-1.711-.53c-.86-.271-1.498-.672-1.887-1.204a2.811 2.811 0 0 1-.59-1.709c0-.495.106-.932.319-1.31.212-.377.495-.707.849-.966a3.74 3.74 0 0 1 1.226-.612c.483-.14.984-.209 1.487-.203.259 0 .53.014.79.047.271.036.519.083.766.13.237.06.46.118.673.19.213.07.378.14.495.212.14.07.26.17.354.294a.644.644 0 0 1 .106.39v.554c0 .248-.095.378-.27.378-.095 0-.249-.048-.449-.142-.672-.308-1.427-.46-2.265-.46-.672 0-1.203.108-1.568.33-.366.224-.555.567-.555 1.052 0 .329.119.611.354.835.236.225.672.449 1.298.649l1.675.531c.849.272 1.462.648 1.828 1.13.365.487.542 1.038.542 1.652 0 .509-.106.968-.307 1.37a3.156 3.156 0 0 1-.86 1.037c-.367.296-.803.508-1.31.663a5.645 5.645 0 0 1-1.686.246" fill="#252F3E" fill-rule="nonzero"/><path d="M361.195 371.806c1.261-.151 4.046-.481 4.54.154.496.627-.554 3.258-1.026 4.425-.141.354.165.495.484.224 2.076-1.746 2.618-5.39 2.193-5.923-.424-.519-4.068-.965-6.286.591-.342.247-.283.577.095.53m-11.44 6.382c4.847 0 10.484-1.523 14.365-4.389.637-.472.083-1.192-.566-.896-4.352 1.84-9.082 2.737-13.387 2.737-6.38 0-12.55-1.76-17.55-4.659-.437-.259-.767.189-.402.52 4.623 4.173 10.745 6.687 17.54 6.687" fill="#F79910"/><path d="M27.295 223.556c14.762 0 26.73 11.967 26.73 26.731 0 14.762-11.968 26.729-26.73 26.729-14.763-.001-26.73-11.968-26.73-26.73 0-14.763 11.967-26.73 26.73-26.73" fill="#FFF" fill-rule="nonzero"/><circle stroke="#FFF" cx="27.295" cy="250.285" r="27.295"/><g transform="translate(14.606 251.126)"><mask id="c" fill="#fff"><use xlink:href="#a"/></mask><path fill="url(#b)" fill-rule="nonzero" mask="url(#c)" d="M31.506 3.218L6.41-11.203-5.627 9.746l25.097 14.42z"/></g><g transform="translate(15.705 238.137)"><mask id="f" fill="#fff"><use xlink:href="#d"/></mask><path fill="url(#e)" fill-rule="nonzero" mask="url(#f)" d="M-7.133 6.194l18.31 21.013L33.037 8.16l-18.31-21.014z"/></g><g transform="translate(8.102 26.973)"><path d="M31.345 314.84c16.999 0 30.78 13.78 30.78 30.78s-13.781 30.78-30.78 30.78c-17 0-30.78-13.781-30.78-30.78 0-16.999 13.78-30.78 30.78-30.78" fill="#FFF" fill-rule="nonzero"/><circle stroke="#FFF" cx="31.345" cy="345.619" r="31.345"/><path d="M29.257 340.135a6.749 6.749 0 0 0 1.996-4.775H17.728a6.749 6.749 0 0 0 6.738 6.733 6.755 6.755 0 0 0 4.79-1.958m10.988 10.752a6.764 6.764 0 0 0-6.763 6.574h13.525a6.765 6.765 0 0 0-6.762-6.574" fill="#17494D"/><path d="M31.253 341.2v16.26H17.728l13.525-16.26zm2.228-5.839v16.26l13.525-16.26H33.481z" fill="#17494D" fill-rule="nonzero"/><path d="M49.163.565c17 0 30.78 13.78 30.78 30.78s-13.78 30.78-30.78 30.78c-16.999 0-30.78-13.78-30.78-30.78 0-16.998 13.781-30.78 30.78-30.78" fill="#FFF" fill-rule="nonzero"/><circle stroke="#FFF" cx="49.163" cy="31.345" r="31.345"/><path d="M68.42 39.309c.467.665.374 1.518-.186 1.993-.652.475-1.583.38-2.05-.19l-3.258-4.271-3.168 4.176c-.466.665-1.397.665-2.05.19-.65-.474-.745-1.328-.279-1.993l3.726-4.935-3.726-4.935c-.466-.665-.279-1.613.28-2.088.652-.475 1.583-.285 2.049.285l3.168 4.27 3.259-4.08c.466-.665 1.304-.76 2.05-.285.652.474.652 1.423.186 2.088l-3.633 4.84 3.633 4.935zm-16.952-.571c-2.422 0-4.378-1.898-4.378-4.365 0-2.373 1.956-4.366 4.378-4.366s4.377 1.993 4.377 4.366c-.092 2.468-2.048 4.365-4.377 4.365m-12.854 0c-2.422 0-4.379-1.898-4.379-4.365 0-2.373 1.957-4.366 4.379-4.366 2.421 0 4.378 1.993 4.378 4.366 0 2.468-1.957 4.365-4.378 4.365m12.854-11.577a7.19 7.19 0 0 0-6.334 3.796c-1.21-2.278-3.633-3.796-6.428-3.796-1.676 0-3.166.57-4.377 1.423V22.51c0-.76-.652-1.423-1.397-1.423-.839 0-1.49.663-1.49 1.423v11.958c.093 3.987 3.26 7.119 7.172 7.119 2.794 0 5.216-1.613 6.426-3.891 1.212 2.278 3.634 3.89 6.334 3.89a7.262 7.262 0 0 0 7.266-7.307c.094-3.893-3.166-7.118-7.172-7.118" fill="#1D6AAE" fill-rule="nonzero"/><path d="M241.13 219.263c21.92 0 39.689 17.77 39.689 39.69 0 21.92-17.769 39.688-39.689 39.688s-39.688-17.77-39.688-39.689c0-21.92 17.768-39.689 39.688-39.689" fill="#FFF" fill-rule="nonzero"/><circle stroke="#FFF" cx="241.13" cy="258.953" r="40.254"/><path d="M223.773 272.426l1.819 3.142a4.286 4.286 0 0 0 1.559 1.559l6.497-11.244h-12.993c0 .732.189 1.464.566 2.125l2.552 4.418z" fill="#1A62AA" fill-rule="nonzero"/><path d="M241.278 252.654l-6.496-11.246a4.307 4.307 0 0 0-1.56 1.56l-12 20.791a4.274 4.274 0 0 0-.567 2.126h12.993l7.63-13.23z" fill="#118F3D" fill-rule="nonzero"/><path d="M255.405 277.128a4.289 4.289 0 0 0 1.56-1.559l.755-1.3 3.615-6.26a4.28 4.28 0 0 0 .567-2.126h-12.994l2.765 5.433 3.732 5.812z" fill="#E84335" fill-rule="nonzero"/><path d="M241.278 252.653l6.496-11.245a4.157 4.157 0 0 0-2.125-.567h-8.742a4.39 4.39 0 0 0-2.125.567l6.496 11.245z" fill="#158232" fill-rule="nonzero"/><path d="M248.909 265.883h-15.261l-6.497 11.244a4.157 4.157 0 0 0 2.125.567h24.003a4.399 4.399 0 0 0 2.127-.567l-6.497-11.244z" fill="#287EB8" fill-rule="nonzero"/><path d="M255.336 253.362l-6.002-10.395a4.277 4.277 0 0 0-1.559-1.559l-6.497 11.245 7.631 13.23h12.97c0-.746-.196-1.479-.568-2.126l-5.975-10.395z" fill="#F7BA0E" fill-rule="nonzero"/><path d="M223.773 272.426l1.819 3.142a4.286 4.286 0 0 0 1.559 1.559l6.497-11.244h-12.993c0 .732.189 1.464.566 2.125l2.552 4.418z" fill="#1A62AA" fill-rule="nonzero"/><path d="M241.278 252.654l-6.496-11.246a4.307 4.307 0 0 0-1.56 1.56l-12 20.791a4.274 4.274 0 0 0-.567 2.126h12.993l7.63-13.23z" fill="#118F3D" fill-rule="nonzero"/><path d="M255.405 277.128a4.289 4.289 0 0 0 1.56-1.559l.755-1.3 3.615-6.26a4.28 4.28 0 0 0 .567-2.126h-12.994l2.765 5.433 3.732 5.812z" fill="#E84335" fill-rule="nonzero"/><path d="M241.278 252.653l6.496-11.245a4.157 4.157 0 0 0-2.125-.567h-8.742a4.39 4.39 0 0 0-2.125.567l6.496 11.245z" fill="#158232" fill-rule="nonzero"/><path d="M248.909 265.883h-15.261l-6.497 11.244a4.157 4.157 0 0 0 2.125.567h24.003a4.399 4.399 0 0 0 2.127-.567l-6.497-11.244z" fill="#287EB8" fill-rule="nonzero"/><path d="M255.336 253.362l-6.002-10.395a4.277 4.277 0 0 0-1.559-1.559l-6.497 11.245 7.631 13.23h12.97c0-.746-.196-1.479-.568-2.126l-5.975-10.395z" fill="#F7BA0E" fill-rule="nonzero"/><path d="M147.984 352.099c21.472 0 38.879 17.406 38.879 38.88 0 21.472-17.407 38.88-38.88 38.88-21.472 0-38.879-17.406-38.879-38.88 0-21.473 17.407-38.88 38.88-38.88" fill="#FFF" fill-rule="nonzero"/><circle stroke="#FFF" cx="147.984" cy="390.978" r="39.445"/><path d="M148.794 366.182c13.246 0 23.984 10.739 23.984 23.987 0 13.245-10.738 23.984-23.984 23.984-13.247 0-23.985-10.739-23.985-23.984 0-13.248 10.738-23.987 23.985-23.987" fill="#4988BD" fill-rule="nonzero"/><path d="M133.146 382.674v11.27a4.615 4.615 0 0 0 4.63 4.59h16.43c.463.003.84-.37.843-.832V386.43a4.612 4.612 0 0 0-4.63-4.59h-16.43a.84.84 0 0 0-.843.834zm22.95 4.396l6.783-4.955c.589-.488 1.045-.366 1.045.517v15.109c0 1.007-.558.884-1.045.518l-6.783-4.945v-6.244zm437.563-243.467c31.995 0 57.933 25.938 57.933 57.934 0 31.994-25.938 57.932-57.933 57.932-31.996 0-57.933-25.938-57.933-57.932 0-31.996 25.937-57.934 57.933-57.934" fill="#FFF" fill-rule="nonzero"/><path fill="#0D1630" fill-rule="nonzero" d="M611.294 215.392l-17.982-35.04-17.983 35.04z"/><path d="M658.314 202.018c0 35.9-29.102 65.002-65.002 65.002-35.9 0-65.003-29.103-65.003-65.002 0-35.9 29.103-65.002 65.003-65.002s65.002 29.102 65.002 65.002m-18.056 0c0 25.928-21.02 46.945-46.946 46.945-25.929 0-46.947-21.019-46.947-46.945 0-25.928 21.02-46.946 46.947-46.946 25.927 0 46.946 21.018 46.946 46.946" fill="#0D1630"/><path d="M593.659 143.603c31.995 0 57.933 25.938 57.933 57.934 0 31.994-25.938 57.932-57.933 57.932-31.996 0-57.933-25.938-57.933-57.932 0-31.996 25.937-57.934 57.933-57.934" fill="#FFF" fill-rule="nonzero"/><path fill="#0D1630" fill-rule="nonzero" d="M611.294 215.392l-17.982-35.04-17.983 35.04z"/><path d="M658.314 202.018c0 35.9-29.102 65.002-65.002 65.002-35.9 0-65.003-29.103-65.003-65.002 0-35.9 29.103-65.002 65.003-65.002s65.002 29.102 65.002 65.002m-18.056 0c0 25.928-21.02 46.945-46.946 46.945-25.929 0-46.947-21.019-46.947-46.945 0-25.928 21.02-46.946 46.947-46.946 25.927 0 46.946 21.018 46.946 46.946" fill="#0D1630"/><path d="M635.1 207.035H961.8M635.098 195.73l203.754 78.658a226.068 226.068 0 0 0 81.424 15.172h40.959" stroke="#E4E6E7" stroke-width="15"/><path d="M635.1 195.73L802.24 328.62a226.088 226.088 0 0 0 140.704 49.118h19.421" stroke="#E4E6E7" stroke-width="15"/><path d="M635.098 212.197l203.754-78.659a226.061 226.061 0 0 1 81.424-15.17l40.959-.002M635.1 212.196L802.24 79.308A226.091 226.091 0 0 1 942.946 30.19h19.421" stroke="#E4E6E7" stroke-width="15"/><path d="M912.67 6.941h278.097c.625 0 1.13.506 1.13 1.13V62.19a1.13 1.13 0 0 1-1.13 1.13H912.671a1.13 1.13 0 0 1-1.13-1.13V8.072c0-.625.505-1.13 1.13-1.13" fill="#FFF" fill-rule="nonzero"/><path d="M927.908 43.41h1.77v-5.516h2.585l3.825 5.514h2.119l-3.99-5.677c2.28-.468 3.606-1.872 3.606-4.294 0-2.564-1.45-4.476-4.787-4.476h-5.128v14.448zm1.772-7.124v-5.718h3.113c1.994 0 3.195.977 3.195 2.828 0 1.67-1.038 2.89-3.44 2.89h-2.868zm19.676 1.995c0-2.828-1.857-4.904-4.557-4.904-2.826 0-4.884 2.096-4.884 5.087 0 3.032 2.069 5.066 5.01 5.066 1.989 0 3.231-.753 4.08-1.852l-1.154-.976c-.61.753-1.549 1.322-2.871 1.322-1.877 0-3.178-1.22-3.403-3.072h7.733c0-.122.046-.406.046-.67m-4.581-3.399c1.628 0 2.693 1.099 2.93 2.727h-6.084c.306-1.69 1.572-2.727 3.154-2.727m11.171 8.647c1.606 0 2.827-.731 3.539-1.912h.021v1.791h1.583V33.5h-1.65v1.75l-.035.02c-.712-1.2-2-1.892-3.458-1.892-2.816 0-4.828 2.218-4.828 5.148 0 3.012 2.09 5.005 4.828 5.005m.238-1.505c-2.037 0-3.392-1.505-3.392-3.5 0-2.197 1.525-3.642 3.392-3.642 1.954 0 3.321 1.608 3.321 3.642.001 2.095-1.492 3.5-3.321 3.5m7.991 1.384h1.65V28.433h-1.65v14.976zm13.192.121c1.189 0 1.855-.285 2.407-.61l-.43-1.445c-.485.264-1.096.509-1.695.509-.925 0-1.198-.57-1.198-1.77v-5.291h3.278v-1.425h-3.278v-3.56l-1.65.182v3.378h-1.278v1.425h1.277v5.534c.002 1.996.815 3.073 2.567 3.073m5.46-11.842a1.187 1.187 0 0 0 1.21-1.18c0-.651-.53-1.18-1.21-1.18-.666 0-1.197.529-1.197 1.18 0 .65.53 1.18 1.198 1.18m-.825 11.721h1.638V33.5h-1.638v9.91zm4.86 0h1.651v-4.924c0-2.218 1.221-3.602 2.849-3.602 1.482 0 2.295 1.16 2.295 3.275v5.251h1.65v-4.924c0-2.218 1.246-3.602 2.794-3.602 1.502 0 2.248 1.16 2.248 3.275v5.251h1.65v-5.697c0-2.829-1.22-4.335-3.413-4.335-1.549 0-2.895.774-3.64 2.117h-.023c-.509-1.364-1.594-2.117-3.075-2.117-1.323 0-2.567.712-3.313 1.913h-.023V33.5h-1.65v9.91zm26.816-5.128c0-2.828-1.854-4.904-4.555-4.904-2.826 0-4.884 2.096-4.884 5.087 0 3.032 2.069 5.066 5.008 5.066 1.99 0 3.233-.753 4.081-1.852l-1.154-.976c-.61.753-1.549 1.322-2.871 1.322-1.876 0-3.177-1.22-3.403-3.072h7.732c0-.122.046-.406.046-.67m-4.579-3.399c1.63 0 2.69 1.099 2.928 2.727h-6.082c.306-1.69 1.57-2.727 3.154-2.727m16.856 8.647c1.933 0 3.255-.731 4.092-1.73l-1.142-1.037c-.61.753-1.652 1.261-2.826 1.261-2.023 0-3.38-1.444-3.38-3.56 0-2.097 1.357-3.582 3.391-3.582a3.651 3.651 0 0 1 2.792 1.262l1.12-.998c-.973-1.16-2.499-1.77-3.991-1.77-2.95 0-5.008 2.096-5.008 5.087 0 3.012 2.056 5.067 4.952 5.067m10.796 0c2.927 0 5.098-2.055 5.098-5.066 0-3.011-2.17-5.087-5.098-5.087-3.075 0-5.133 2.237-5.133 5.087 0 2.848 2.058 5.066 5.133 5.066m0-1.505c-2.058 0-3.448-1.587-3.448-3.56 0-1.974 1.367-3.582 3.448-3.582 1.911 0 3.415 1.465 3.415 3.581 0 2.116-1.528 3.561-3.415 3.561m7.687 1.384h1.639V28.433h-1.64v14.976zm4.985 0h1.65V28.433h-1.65v14.976zm13.679-5.128c0-2.828-1.855-4.904-4.566-4.904-2.826 0-4.885 2.096-4.885 5.087 0 3.032 2.08 5.066 5.008 5.066 2.002 0 3.233-.753 4.092-1.852l-1.164-.976c-.61.753-1.536 1.322-2.858 1.322-1.877 0-3.179-1.22-3.405-3.072h7.735c-.001-.122.043-.406.043-.67m-4.579-3.399c1.628 0 2.68 1.099 2.928 2.727h-6.082c.306-1.69 1.56-2.727 3.154-2.727m11.305 8.647c1.933 0 3.256-.731 4.093-1.73l-1.142-1.037c-.61.753-1.65 1.261-2.826 1.261-2.013 0-3.38-1.444-3.38-3.56 0-2.097 1.367-3.582 3.402-3.582 1.176 0 2.148.529 2.781 1.262l1.12-.998c-.97-1.16-2.499-1.77-3.99-1.77-2.95 0-4.998 2.096-4.998 5.087-.001 3.012 2.046 5.067 4.94 5.067m9.09 0c1.175 0 1.842-.285 2.396-.61l-.43-1.445c-.486.264-1.096.509-1.684.509-.938 0-1.198-.57-1.198-1.77v-5.291h3.267v-1.425h-3.267v-3.56l-1.65.182v3.378h-1.29v1.425h1.29v5.534c0 1.996.813 3.073 2.565 3.073m5.46-11.842c.667 0 1.201-.529 1.201-1.18 0-.651-.534-1.18-1.2-1.18a1.18 1.18 0 0 0 0 2.36m-.838 11.721h1.65V33.5h-1.65v9.91zm9.361.121c2.928 0 5.111-2.055 5.111-5.066 0-3.011-2.184-5.087-5.11-5.087-3.076 0-5.122 2.237-5.122 5.087-.001 2.848 2.046 5.066 5.121 5.066m0-1.505c-2.057 0-3.436-1.587-3.436-3.56 0-1.974 1.367-3.582 3.436-3.582 1.91 0 3.426 1.465 3.426 3.581 0 2.116-1.528 3.561-3.426 3.561m7.563 1.384h1.65v-4.945c0-2.238 1.223-3.58 3.098-3.58 1.446 0 2.44.793 2.44 3.112v5.413h1.651v-5.88c0-2.83-1.424-4.152-3.56-4.152-1.527 0-2.836.712-3.606 1.913h-.022V33.5h-1.65v9.91zm14.719.121c2.385 0 3.56-1.282 3.56-2.828.023-1.934-1.367-2.3-3.46-3.114-1.071-.386-1.875-.773-1.875-1.546 0-.753.759-1.2 1.526-1.2.86 0 1.776.264 2.634 1.057l.848-1.302c-1.095-.895-2.216-1.22-3.415-1.22-1.876 0-3.256 1.139-3.256 2.665 0 1.81 1.357 2.462 2.973 3.032 1.437.529 2.352.773 2.352 1.648 0 .753-.688 1.343-1.888 1.343-1.38 0-2.261-.448-3.03-1.2l-.836 1.261c.962.834 2.216 1.404 3.867 1.404" fill="#000" fill-rule="nonzero"/><path d="M912.67 92.27h278.097c.625 0 1.13.507 1.13 1.13v54.118a1.13 1.13 0 0 1-1.13 1.13H912.671a1.13 1.13 0 0 1-1.13-1.13V93.4c0-.624.505-1.13 1.13-1.13" fill="#FFF" fill-rule="nonzero"/><path d="M928.261 129.04h1.77v-14.448h-1.77v14.447zm5.218 0h1.649v-4.946c0-2.238 1.22-3.58 3.09-3.58 1.447 0 2.442.793 2.442 3.112v5.413h1.65v-5.88c0-2.829-1.424-4.152-3.56-4.152-1.528 0-2.83.713-3.603 1.913h-.02v-1.79h-1.649v9.91h.001zm15.932.121c1.617 0 2.871-.753 3.584-1.953h.022v1.831h1.583v-14.976h-1.638v6.837h-.024c-.757-1.2-2.035-1.893-3.538-1.893-2.793 0-4.85 2.218-4.85 5.149 0 3.011 2.114 5.005 4.861 5.005m.226-1.506c-2.012 0-3.391-1.505-3.391-3.5 0-2.197 1.526-3.642 3.414-3.642 1.99 0 3.357 1.608 3.357 3.643 0 2.095-1.504 3.5-3.38 3.5m16.854-3.745c0-2.828-1.854-4.904-4.554-4.904-2.826 0-4.884 2.096-4.884 5.087 0 3.032 2.08 5.067 5.008 5.067 1.99 0 3.233-.753 4.094-1.851l-1.165-.977c-.61.753-1.549 1.322-2.871 1.322-1.866 0-3.178-1.22-3.392-3.072h7.733c-.001-.122.031-.407.031-.672m-4.576-3.398c1.627 0 2.69 1.099 2.927 2.727h-6.08c.303-1.69 1.57-2.727 3.153-2.727m5.606 8.526h1.842l2.713-3.602h.023l2.679 3.602h1.876l-3.627-5.006 3.583-4.904h-1.934l-2.6 3.622h-.045l-2.566-3.622h-1.945l3.595 4.884-3.594 5.026zm10.311 2.666h1.244l1.22-4.904h-1.797l-.667 4.904zm19.568-7.794c0-2.828-1.854-4.904-4.567-4.904-2.827 0-4.884 2.096-4.884 5.087 0 3.032 2.08 5.067 5.01 5.067 2 0 3.231-.753 4.091-1.851l-1.165-.977c-.61.753-1.536 1.322-2.86 1.322-1.876 0-3.176-1.22-3.403-3.072h7.734c-.001-.122.044-.407.044-.672m-4.58-3.398c1.628 0 2.68 1.099 2.93 2.727h-6.084c.307-1.69 1.561-2.727 3.154-2.727m6.988 8.526h1.65v-4.945c0-2.238 1.221-3.58 3.098-3.58 1.435 0 2.44.793 2.44 3.112v5.413h1.64v-5.88c0-2.829-1.425-4.152-3.56-4.152-1.527 0-2.827.713-3.595 1.913h-.024v-1.79h-1.65v9.91zm11.723 0h1.65v-4.782c0-1.994 1.118-3.439 3.019-3.439.158 0 .405.022.643.041v-1.831c-.135-.02-.26-.02-.406-.02-1.357 0-2.498.732-3.21 1.932h-.046v-1.81h-1.65v9.91zm8.138-11.72c.668 0 1.2-.53 1.2-1.18 0-.652-.532-1.181-1.2-1.181-.678 0-1.209.529-1.209 1.18 0 .651.532 1.18 1.209 1.18m-.835 11.721h1.65v-9.91h-1.65v9.91zm9.179.122c1.933 0 3.256-.732 4.091-1.73l-1.14-1.037c-.612.753-1.652 1.261-2.827 1.261-2.024 0-3.38-1.444-3.38-3.56 0-2.096 1.356-3.582 3.39-3.582 1.189 0 2.16.53 2.794 1.262l1.118-.997c-.971-1.16-2.498-1.77-3.99-1.77-2.95 0-5.009 2.095-5.009 5.086 0 3.012 2.059 5.067 4.953 5.067m6.297-.122h1.651v-4.985c0-2.239 1.221-3.54 3.187-3.54 1.447 0 2.442.813 2.442 3.051v5.474h1.65v-5.942c0-2.828-1.47-4.09-3.605-4.09-1.582 0-2.883.672-3.663 1.852h-.01v-6.796h-1.652v14.976zm21.4.122c1.74 0 3.03-.55 3.979-1.485h.045l1.164 1.363h1.966l-1.99-2.401v-.04c.895-1.303 1.245-2.91 1.245-4.274l-1.616.02c0 .937-.215 1.974-.725 2.89h-.069l-5.855-6.96c.135-1.281.995-2.319 2.667-2.319 1.437 0 2.239.834 2.657 1.77l1.424-.549c-.588-1.323-1.888-2.727-4.204-2.727-2.385 0-4.092 1.71-4.274 4.09l1.708 2.076v.04c-1.583.855-2.725 2.442-2.725 4.253.002 2.564 2.036 4.253 4.603 4.253m.158-1.567c-1.832 0-3.03-1.18-3.03-2.767 0-1.2.769-2.38 2.012-2.991l3.888 4.619v.04c-.688.672-1.627 1.1-2.87 1.1m17.613 1.566c2.384 0 3.56-1.282 3.56-2.828.023-1.933-1.356-2.3-3.46-3.114-1.073-.386-1.865-.773-1.865-1.546 0-.753.746-1.2 1.527-1.2.848 0 1.764.264 2.622 1.058l.86-1.303c-1.107-.895-2.228-1.22-3.425-1.22-1.865 0-3.256 1.139-3.256 2.665 0 1.811 1.368 2.462 2.973 3.032 1.447.529 2.363.773 2.363 1.648 0 .753-.69 1.343-1.9 1.343-1.379 0-2.249-.448-3.03-1.2l-.836 1.261c.961.833 2.227 1.404 3.867 1.404m14.707-5.25c0-2.828-1.854-4.904-4.555-4.904-2.826 0-4.883 2.096-4.883 5.087 0 3.032 2.069 5.067 5.008 5.067 1.99 0 3.233-.753 4.08-1.851l-1.153-.977c-.61.753-1.548 1.322-2.87 1.322-1.877 0-3.178-1.22-3.405-3.072h7.733c0-.122.045-.407.045-.672m-4.578-3.398c1.626 0 2.69 1.099 2.928 2.727h-6.082c.304-1.69 1.572-2.727 3.154-2.727m11.169 8.648c1.605 0 2.826-.732 3.538-1.913h.024v1.791h1.583v-9.91h-1.652v1.75l-.034.02c-.711-1.2-2-1.892-3.46-1.892-2.814 0-4.827 2.218-4.827 5.149 0 3.011 2.103 5.005 4.828 5.005m.237-1.506c-2.035 0-3.391-1.505-3.391-3.5 0-2.197 1.526-3.642 3.391-3.642 1.956 0 3.324 1.608 3.324 3.643 0 2.095-1.492 3.5-3.324 3.5m7.868 1.383h1.65v-4.782c0-1.994 1.12-3.439 3.008-3.439.17 0 .407.022.656.041v-1.831c-.147-.02-.272-.02-.407-.02-1.367 0-2.51.732-3.222 1.932h-.034v-1.81h-1.65v9.91zm11.17.122c1.933 0 3.256-.732 4.092-1.73l-1.142-1.037c-.61.753-1.65 1.261-2.826 1.261-2.012 0-3.38-1.444-3.38-3.56 0-2.096 1.368-3.582 3.403-3.582 1.176 0 2.159.53 2.781 1.262l1.119-.997c-.973-1.16-2.499-1.77-3.98-1.77-2.95 0-5.008 2.095-5.008 5.086 0 3.012 2.058 5.067 4.942 5.067m6.295-.122h1.65v-4.985c0-2.239 1.222-3.54 3.2-3.54 1.437 0 2.442.813 2.442 3.051v5.474h1.638v-5.942c0-2.828-1.459-4.09-3.595-4.09-1.593 0-2.894.672-3.663 1.852H1122v-6.796h-1.651v14.976h.001z" fill="#000" fill-rule="nonzero"/><path d="M912.67 177.6h278.097c.625 0 1.13.506 1.13 1.13v54.117a1.13 1.13 0 0 1-1.13 1.13H912.671a1.13 1.13 0 0 1-1.13-1.13V178.73c0-.624.505-1.13 1.13-1.13" fill="#FFF" fill-rule="nonzero"/><path d="M928.16 214.363h9.28v-1.608h-7.512v-4.782h5.8v-1.607h-5.8v-4.843h7.084v-1.608h-8.852v14.448zm15.712.123c1.605 0 2.826-.732 3.538-1.913h.024v1.791h1.581v-9.91h-1.637v1.75l-.045.022c-.712-1.2-1.992-1.894-3.461-1.894-2.803 0-4.827 2.218-4.827 5.148 0 3.01 2.101 5.006 4.827 5.006m.248-1.506c-2.036 0-3.403-1.505-3.403-3.5 0-2.197 1.528-3.643 3.403-3.643 1.945 0 3.313 1.608 3.313 3.642 0 2.097-1.482 3.501-3.313 3.501m7.857 1.383h1.65v-4.78c0-1.996 1.12-3.44 3.008-3.44.17 0 .407.02.655.04v-1.83c-.146-.022-.258-.022-.406-.022-1.368 0-2.499.733-3.211 1.933h-.045v-1.81h-1.65v9.909zm7.302 0h1.64v-14.977h-1.64v14.977zm6.027 4.03h1.708l5.618-13.939h-1.73l-2.995 7.53h-.033l-3.223-7.53h-1.786l4.217 9.523-1.776 4.416zm19.206-3.907c1.933 0 3.256-.732 4.093-1.73l-1.141-1.037c-.61.753-1.65 1.261-2.826 1.261-2.014 0-3.381-1.444-3.381-3.56 0-2.097 1.367-3.582 3.402-3.582 1.176 0 2.148.529 2.781 1.262l1.12-.998c-.973-1.16-2.499-1.77-3.991-1.77-2.948 0-4.997 2.096-4.997 5.087 0 3.01 2.047 5.067 4.94 5.067m10.469 0c1.605 0 2.826-.732 3.538-1.913h.024v1.791h1.581v-9.91h-1.637v1.75l-.045.022c-.712-1.2-1.992-1.894-3.461-1.894-2.803 0-4.828 2.218-4.828 5.148 0 3.01 2.102 5.006 4.828 5.006m.25-1.506c-2.038 0-3.406-1.505-3.406-3.5 0-2.197 1.529-3.643 3.405-3.643 1.944 0 3.311 1.608 3.311 3.642 0 2.097-1.482 3.501-3.31 3.501m10.85 1.506c2.387 0 3.563-1.282 3.563-2.828.021-1.933-1.37-2.3-3.462-3.115-1.074-.386-1.876-.773-1.876-1.545 0-.753.757-1.2 1.528-1.2.858 0 1.773.264 2.634 1.059l.848-1.303c-1.099-.895-2.216-1.22-3.415-1.22-1.877 0-3.256 1.14-3.256 2.665 0 1.811 1.357 2.462 2.973 3.032 1.437.53 2.352.773 2.352 1.648 0 .753-.69 1.343-1.888 1.343-1.378 0-2.261-.448-3.029-1.2l-.837 1.261c.96.833 2.215 1.403 3.866 1.403m14.696-5.25c0-2.83-1.843-4.905-4.556-4.905-2.826 0-4.881 2.096-4.881 5.087 0 3.033 2.08 5.067 5.007 5.067 1.99 0 3.233-.753 4.092-1.852l-1.164-.976c-.61.752-1.55 1.322-2.872 1.322-1.865 0-3.165-1.22-3.391-3.072h7.732c-.001-.121.033-.406.033-.67m-4.578-3.4c1.626 0 2.69 1.099 2.939 2.727h-6.094c.306-1.69 1.572-2.727 3.155-2.727m16.72 8.65c1.605 0 2.827-.733 3.538-1.914h.022v1.791h1.583v-9.91h-1.65v1.75l-.035.022c-.712-1.2-2-1.894-3.458-1.894-2.816 0-4.828 2.218-4.828 5.148 0 3.01 2.093 5.006 4.828 5.006m.237-1.506c-2.034 0-3.392-1.505-3.392-3.5 0-2.197 1.526-3.643 3.392-3.643 1.954 0 3.322 1.608 3.322 3.642.001 2.097-1.49 3.501-3.322 3.501m10.862 1.506c2.375 0 3.561-1.282 3.561-2.828.012-1.933-1.368-2.3-3.458-3.115-1.086-.386-1.876-.773-1.876-1.545 0-.753.756-1.2 1.525-1.2.859 0 1.775.264 2.622 1.059l.86-1.303c-1.097-.895-2.216-1.22-3.426-1.22-1.863 0-3.256 1.14-3.256 2.665 0 1.811 1.368 2.462 2.974 3.032 1.447.53 2.362.773 2.362 1.648 0 .753-.688 1.343-1.888 1.343-1.389 0-2.26-.448-3.04-1.2l-.825 1.261c.949.833 2.215 1.403 3.865 1.403m8.876 0c2.384 0 3.56-1.282 3.56-2.828.023-1.933-1.355-2.3-3.46-3.115-1.074-.386-1.865-.773-1.865-1.545 0-.753.746-1.2 1.527-1.2.848 0 1.764.264 2.622 1.059l.861-1.303c-1.109-.895-2.229-1.22-3.426-1.22-1.865 0-3.256 1.14-3.256 2.665 0 1.811 1.368 2.462 2.973 3.032 1.448.53 2.363.773 2.363 1.648 0 .753-.69 1.343-1.9 1.343-1.378 0-2.249-.448-3.03-1.2l-.834 1.261c.96.833 2.226 1.403 3.865 1.403m14.707-5.25c0-2.83-1.853-4.905-4.556-4.905-2.837 0-4.881 2.096-4.881 5.087 0 3.033 2.069 5.067 4.997 5.067 2 0 3.244-.753 4.092-1.852l-1.154-.976c-.61.752-1.549 1.322-2.872 1.322-1.876 0-3.175-1.22-3.402-3.072h7.732c-.001-.121.044-.406.044-.67m-4.578-3.4c1.627 0 2.68 1.099 2.928 2.727h-6.082c.304-1.69 1.56-2.727 3.154-2.727m9.982 8.65c2.384 0 3.56-1.283 3.56-2.83.023-1.932-1.355-2.299-3.46-3.114-1.073-.386-1.865-.773-1.865-1.545 0-.753.746-1.2 1.529-1.2.847 0 1.762.264 2.62 1.059l.848-1.303c-1.097-.895-2.216-1.22-3.414-1.22-1.877 0-3.256 1.14-3.256 2.665 0 1.811 1.368 2.462 2.973 3.032 1.448.53 2.363.773 2.363 1.648 0 .753-.701 1.343-1.9 1.343-1.38 0-2.26-.448-3.03-1.2l-.834 1.261c.96.833 2.216 1.403 3.866 1.403m8.884 0c2.386 0 3.561-1.282 3.561-2.828.023-1.933-1.368-2.3-3.458-3.115-1.075-.386-1.876-.773-1.876-1.545 0-.753.756-1.2 1.525-1.2.859 0 1.774.264 2.634 1.059l.847-1.303c-1.096-.895-2.215-1.22-3.412-1.22-1.877 0-3.259 1.14-3.259 2.665 0 1.811 1.357 2.462 2.976 3.032 1.434.53 2.349.773 2.349 1.648 0 .753-.688 1.343-1.888 1.343-1.379 0-2.26-.448-3.03-1.2l-.836 1.261c.964.833 2.217 1.403 3.867 1.403m5.89-.123h1.65v-4.923c0-2.22 1.221-3.603 2.85-3.603 1.481 0 2.296 1.16 2.296 3.276v5.25h1.65v-4.923c0-2.22 1.243-3.603 2.792-3.603 1.504 0 2.261 1.16 2.261 3.276v5.25h1.64v-5.698c0-2.828-1.222-4.334-3.416-4.334-1.549 0-2.894.774-3.64 2.116h-.022c-.51-1.363-1.583-2.116-3.077-2.116-1.322 0-2.566.712-3.312 1.913h-.024v-1.79h-1.65v9.909h.002zm26.817-5.127c0-2.83-1.856-4.905-4.557-4.905-2.826 0-4.883 2.096-4.883 5.087 0 3.033 2.068 5.067 5.01 5.067 1.988 0 3.23-.753 4.079-1.852l-1.154-.976c-.61.752-1.548 1.322-2.87 1.322-1.878 0-3.179-1.22-3.403-3.072h7.732c0-.121.046-.406.046-.67m-4.58-3.4c1.627 0 2.692 1.099 2.93 2.727h-6.082c.304-1.69 1.57-2.727 3.153-2.727m6.997 8.526h1.65v-4.945c0-2.237 1.222-3.581 3.088-3.581 1.445 0 2.44.793 2.44 3.113v5.413h1.651v-5.88c0-2.828-1.425-4.152-3.56-4.152-1.527 0-2.827.712-3.607 1.913h-.011v-1.79h-1.65v9.909zm14.516.123c1.175 0 1.842-.285 2.396-.61l-.43-1.445c-.484.264-1.095.509-1.684.509-.938 0-1.198-.57-1.198-1.77v-5.291h3.267v-1.425h-3.267v-3.56l-1.65.182v3.378h-1.29v1.425h1.29v5.534c0 1.995.813 3.073 2.566 3.073" fill="#000" fill-rule="nonzero"/><path d="M912.67 262.93h278.097c.625 0 1.13.505 1.13 1.13v54.118a1.13 1.13 0 0 1-1.13 1.13H912.671a1.13 1.13 0 0 1-1.13-1.13V264.06c0-.625.505-1.13 1.13-1.13" fill="#FFF" fill-rule="nonzero"/><path d="M934.733 299.798c2.544 0 4.38-1.16 5.634-2.726l-1.322-1.12c-1.018 1.284-2.441 2.178-4.312 2.178-3.053 0-5.352-2.156-5.352-5.617 0-3.316 2.056-5.717 5.332-5.717 1.626 0 3.112.69 4.31 2.177l1.322-1.099c-1.526-1.872-3.557-2.767-5.632-2.767-4.62 0-7.183 3.317-7.183 7.406 0 4.722 3.296 7.285 7.203 7.285m12.348.02c2.93 0 5.1-2.054 5.1-5.066s-2.17-5.087-5.1-5.087c-3.074 0-5.132 2.237-5.132 5.087 0 2.847 2.06 5.066 5.132 5.066m0-1.506c-2.056 0-3.447-1.586-3.447-3.56s1.368-3.581 3.447-3.581c1.91 0 3.415 1.465 3.415 3.581 0 2.116-1.527 3.56-3.415 3.56m7.689 1.385h1.638V284.72h-1.638v14.977zm4.984 0h1.65V284.72h-1.65v14.977zm9.035.12c1.605 0 2.826-.73 3.537-1.91h.024v1.79h1.594v-9.91h-1.651v1.749l-.045.021c-.714-1.2-1.991-1.892-3.46-1.892-2.803 0-4.816 2.218-4.816 5.148 0 3.012 2.09 5.005 4.817 5.005m.246-1.506c-2.034 0-3.402-1.506-3.402-3.5 0-2.197 1.527-3.642 3.402-3.642 1.956 0 3.313 1.607 3.313 3.642 0 2.096-1.482 3.5-3.313 3.5m13.058 1.506c2.723 0 4.816-1.994 4.816-5.006 0-2.93-2.011-5.148-4.816-5.148-1.516 0-2.77.671-3.527 1.852h-.024v-6.797h-1.639v14.977h1.561v-1.791h.045c.736 1.181 1.957 1.913 3.584 1.913m-.226-1.506c-1.9 0-3.403-1.404-3.403-3.5 0-2.035 1.368-3.642 3.38-3.642 1.877 0 3.403 1.444 3.403 3.642 0 1.994-1.39 3.5-3.38 3.5m12.03 1.506c2.926 0 5.11-2.054 5.11-5.066s-2.184-5.087-5.11-5.087c-3.077 0-5.133 2.237-5.133 5.087 0 2.847 2.056 5.066 5.132 5.066m0-1.506c-2.057 0-3.436-1.586-3.436-3.56s1.355-3.581 3.436-3.581c1.91 0 3.414 1.465 3.414 3.581 0 2.116-1.527 3.56-3.414 3.56m7.562 1.385h1.65v-4.782c0-1.994 1.12-3.44 3.008-3.44.17 0 .406.022.655.042v-1.832c-.148-.02-.26-.02-.407-.02-1.367 0-2.498.731-3.21 1.933h-.045v-1.811h-1.65v9.91zm11.046.12c1.617 0 2.836-.73 3.55-1.91h.011v1.79h1.594v-9.91h-1.65v1.749l-.046.021c-.712-1.2-1.99-1.892-3.459-1.892-2.804 0-4.817 2.218-4.817 5.148 0 3.012 2.09 5.005 4.817 5.005m.248-1.506c-2.036 0-3.404-1.506-3.404-3.5 0-2.197 1.527-3.642 3.404-3.642 1.954 0 3.312 1.607 3.312 3.642 0 2.096-1.482 3.5-3.312 3.5m10.649 1.506c1.187 0 1.854-.285 2.408-.61l-.43-1.444c-.487.263-1.098.508-1.684.508-.939 0-1.209-.57-1.209-1.77v-5.29h3.277v-1.425h-3.277v-3.561l-1.64.183v3.378h-1.289v1.424h1.289v5.535c-.001 1.994.814 3.072 2.555 3.072m12.897-5.25c0-2.828-1.842-4.903-4.554-4.903-2.827 0-4.884 2.095-4.884 5.087 0 3.032 2.081 5.066 5.008 5.066 1.99 0 3.233-.753 4.093-1.852l-1.164-.977c-.61.753-1.549 1.323-2.871 1.323-1.866 0-3.167-1.221-3.392-3.073h7.733c-.002-.122.031-.407.031-.67m-4.576-3.398c1.627 0 2.69 1.099 2.94 2.726h-6.095c.305-1.689 1.571-2.726 3.155-2.726m16.573 8.647c1.75 0 3.028-.549 3.99-1.485h.033l1.165 1.364h1.978l-2.002-2.401v-.041c.893-1.304 1.244-2.91 1.244-4.273l-1.605.021a6.04 6.04 0 0 1-.736 2.89h-.056l-5.866-6.96c.147-1.281.995-2.32 2.667-2.32 1.448 0 2.238.835 2.667 1.771l1.426-.55c-.589-1.322-1.9-2.726-4.217-2.726-2.375 0-4.092 1.71-4.273 4.09l1.708 2.076v.04c-1.582.855-2.725 2.442-2.725 4.253-.001 2.562 2.035 4.25 4.602 4.25m.156-1.566c-1.83 0-3.03-1.18-3.03-2.768 0-1.2.78-2.38 2.012-2.99l3.888 4.618v.041c-.687.673-1.626 1.099-2.87 1.099m17.625 1.567c2.374 0 3.561-1.282 3.561-2.829.023-1.932-1.368-2.298-3.46-3.113-1.086-.387-1.877-.773-1.877-1.545 0-.753.757-1.201 1.526-1.201.86 0 1.775.265 2.623 1.058l.86-1.301c-1.097-.895-2.216-1.221-3.415-1.221-1.877 0-3.256 1.14-3.256 2.666 0 1.81 1.356 2.462 2.962 3.032 1.447.529 2.363.773 2.363 1.648 0 .753-.69 1.343-1.888 1.343-1.39 0-2.261-.448-3.03-1.2l-.836 1.26c.95.833 2.217 1.403 3.867 1.403m5.89-.121h1.65v-4.986c0-2.238 1.221-3.54 3.187-3.54 1.448 0 2.443.814 2.443 3.052v5.474h1.65v-5.942c0-2.828-1.459-4.09-3.595-4.09-1.593 0-2.896.671-3.662 1.852h-.024v-6.797h-1.65v14.977zm15.997.12c1.604 0 2.826-.73 3.537-1.91h.024v1.79h1.582v-9.91h-1.65v1.749l-.034.021c-.712-1.2-2-1.892-3.459-1.892-2.816 0-4.828 2.218-4.828 5.148 0 3.012 2.101 5.005 4.828 5.005m.236-1.506c-2.033 0-3.391-1.506-3.391-3.5 0-2.197 1.527-3.642 3.391-3.642 1.956 0 3.324 1.607 3.324 3.642 0 2.096-1.491 3.5-3.324 3.5m7.867 1.385h1.65v-4.782c0-1.994 1.12-3.44 3.01-3.44.168 0 .405.022.654.042v-1.832c-.147-.02-.26-.02-.407-.02-1.368 0-2.499.731-3.21 1.933h-.046v-1.811h-1.65v9.91zm15.67-5.128c0-2.829-1.854-4.904-4.555-4.904-2.826 0-4.883 2.095-4.883 5.087 0 3.032 2.067 5.066 5.008 5.066 1.99 0 3.233-.753 4.08-1.852l-1.154-.977c-.609.753-1.547 1.323-2.87 1.323-1.876 0-3.178-1.221-3.404-3.073h7.733c0-.122.045-.407.045-.67m-4.578-3.398c1.626 0 2.69 1.099 2.927 2.726h-6.082c.306-1.689 1.573-2.726 3.155-2.726" fill="#000" fill-rule="nonzero"/><path d="M912.67 348.262h278.097c.626 0 1.13.504 1.13 1.13v54.117a1.13 1.13 0 0 1-1.13 1.13H912.671a1.13 1.13 0 0 1-1.13-1.13v-54.117c0-.626.504-1.13 1.13-1.13" fill="#FFF" fill-rule="nonzero"/><path d="M928.16 385.028h9.278v-1.608h-7.51v-4.781h5.8v-1.608h-5.8v-4.843h7.083v-1.607h-8.852v14.447zm10.862 0h1.855l2.702-3.602h.023l2.691 3.602h1.864l-3.617-5.007 3.583-4.904h-1.933l-2.611 3.624h-.034l-2.566-3.624h-1.956l3.606 4.884-3.607 5.027zm11.25 4.03h1.65v-5.739h.022c.725 1.14 1.945 1.83 3.515 1.83 2.726 0 4.828-1.993 4.828-5.004 0-2.93-2.023-5.148-4.828-5.148-1.503 0-2.77.69-3.515 1.87h-.022v-1.75h-1.65v13.94zm4.96-5.414c-1.888 0-3.392-1.405-3.392-3.5 0-2.034 1.357-3.642 3.37-3.642 1.876 0 3.402 1.444 3.402 3.643.001 1.993-1.378 3.499-3.38 3.499m12.042 1.505c2.926 0 5.097-2.054 5.097-5.064 0-3.012-2.17-5.087-5.097-5.087-3.076 0-5.133 2.237-5.133 5.087 0 2.847 2.057 5.064 5.133 5.064m0-1.505c-2.059 0-3.45-1.587-3.45-3.56s1.368-3.58 3.45-3.58c1.91 0 3.413 1.465 3.413 3.58-.002 2.115-1.525 3.56-3.413 3.56m7.561 1.384h1.65v-4.782c0-1.994 1.119-3.438 3.007-3.438.16 0 .408.02.656.04v-1.831c-.147-.02-.27-.02-.406-.02-1.368 0-2.511.73-3.223 1.933h-.033v-1.813h-1.65v9.911zm9.961.121c1.175 0 1.853-.285 2.396-.609l-.43-1.445c-.487.264-1.098.509-1.683.509-.939 0-1.2-.57-1.2-1.77v-5.291h3.277v-1.424h-3.277v-3.56l-1.65.182v3.378h-1.279v1.424h1.279v5.535c0 1.994.814 3.071 2.567 3.071m10.512-.12h1.65v-8.487h2.804v-1.425h-2.803v-1.851c0-1.304.532-1.832 1.345-1.832.542 0 1.098.204 1.73.528l.36-1.404a4.202 4.202 0 0 0-2.295-.649c-1.773 0-2.792 1.078-2.792 3.193v2.015h-1.198v1.425h1.198v8.486h.001zm10.603.12c2.94 0 5.11-2.054 5.11-5.064 0-3.012-2.17-5.087-5.11-5.087-3.064 0-5.12 2.237-5.12 5.087 0 2.847 2.058 5.064 5.12 5.064m0-1.505c-2.046 0-3.437-1.587-3.437-3.56s1.368-3.58 3.437-3.58c1.922 0 3.427 1.465 3.427 3.58s-1.527 3.56-3.427 3.56m7.575 1.384h1.64v-4.782c0-1.994 1.119-3.438 3.02-3.438.156 0 .405.02.642.04v-1.831c-.135-.02-.26-.02-.406-.02-1.357 0-2.498.73-3.211 1.933h-.044v-1.813h-1.64v9.911zm12.718 0h1.64v-4.782c0-1.994 1.119-3.438 3.019-3.438.157 0 .406.02.643.04v-1.831c-.136-.02-.26-.02-.406-.02-1.357 0-2.498.73-3.211 1.933h-.044v-1.813h-1.64v9.911zm15.669-5.127c0-2.829-1.856-4.904-4.568-4.904-2.826 0-4.883 2.094-4.883 5.087 0 3.032 2.08 5.064 5.008 5.064 2.002 0 3.234-.753 4.092-1.85l-1.163-.978c-.61.753-1.538 1.322-2.86 1.322-1.876 0-3.178-1.22-3.403-3.071h7.733c-.002-.123.044-.408.044-.67m-4.579-3.399c1.627 0 2.678 1.1 2.928 2.725h-6.082c.307-1.687 1.56-2.725 3.154-2.725m9.506 8.526h1.584l4.023-9.91h-1.762l-3.03 7.813h-.024l-3.03-7.814h-1.798l4.037 9.911zm8.57-11.72c.679 0 1.21-.53 1.21-1.18 0-.652-.532-1.18-1.21-1.18-.668 0-1.199.528-1.199 1.18a1.188 1.188 0 0 0 1.198 1.18m-.824 11.72h1.64v-9.91h-1.64v9.91zm13.668-5.127c0-2.829-1.843-4.904-4.556-4.904-2.826 0-4.883 2.094-4.883 5.087 0 3.032 2.08 5.064 5.008 5.064 1.99 0 3.233-.753 4.093-1.85l-1.164-.978c-.61.753-1.55 1.322-2.871 1.322-1.866 0-3.166-1.22-3.391-3.071h7.73c0-.123.034-.408.034-.67m-4.579-3.399c1.627 0 2.69 1.1 2.94 2.725h-6.094c.305-1.687 1.572-2.725 3.154-2.725m8.942 8.526h1.504l2.285-7.265h.021l2.273 7.265h1.55l3.423-9.91h-1.695l-2.475 7.447h-.045l-2.318-7.448h-1.425l-2.284 7.448h-.034l-2.51-7.448h-1.684l3.414 9.911z" fill="#000" fill-rule="nonzero"/><path d="M593.659 143.603c31.995 0 57.933 25.938 57.933 57.934 0 31.994-25.938 57.932-57.933 57.932-31.996 0-57.933-25.938-57.933-57.932 0-31.996 25.937-57.934 57.933-57.934" fill="#FFF" fill-rule="nonzero"/><path fill="#0D1630" fill-rule="nonzero" d="M611.294 215.392l-17.982-35.04-17.983 35.04z"/><path d="M658.314 202.018c0 35.9-29.102 65.002-65.002 65.002-35.9 0-65.003-29.103-65.003-65.002 0-35.9 29.103-65.002 65.003-65.002s65.002 29.102 65.002 65.002m-18.056 0c0 25.928-21.02 46.945-46.946 46.945-25.929 0-46.947-21.019-46.947-46.945 0-25.928 21.02-46.946 46.947-46.946 25.927 0 46.946 21.018 46.946 46.946" fill="#0D1630"/></g></g></svg>